<?xml version="1.0" standalone="no"?>
<!DOCTYPE svg PUBLIC "-//W3C//DTD SVG 20010904//EN"
 "http://www.w3.org/TR/2001/REC-SVG-20010904/DTD/svg10.dtd">
<svg version="1.0" xmlns="http://www.w3.org/2000/svg"
 width="1024.000000pt" height="1024.000000pt" viewBox="0 0 1024.000000 1024.000000"
 preserveAspectRatio="xMidYMid meet">
<metadata>
Created by potrace 1.11, written by Peter Selinger 2001-2013
</metadata>
<g transform="translate(0.000000,1024.000000) scale(0.100000,-0.100000)"
fill="#000000" stroke="none">
<path d="M0 5120 l0 -5120 5120 0 5120 0 0 5120 0 5120 -5120 0 -5120 0 0
-5120z m4404 4071 c138 -37 241 -93 327 -180 90 -90 134 -171 154 -287 53
-295 -61 -533 -315 -658 -258 -126 -624 -139 -898 -31 -186 74 -324 217 -367
380 -20 78 -20 249 1 328 60 233 274 406 572 462 118 22 422 14 526 -14z m353
-4173 c-3 -2011 -5 -2238 -20 -2378 -71 -641 -244 -1111 -494 -1341 -151 -137
-342 -222 -582 -258 -94 -15 -359 -15 -448 -1 -227 36 -391 106 -483 206 -38
41 -100 153 -100 180 0 6 27 14 63 17 246 24 442 154 541 359 76 157 133 389
167 683 9 73 13 739 16 2428 l4 2327 670 0 670 0 -4 -2222z m2283 -1174 c292
-55 491 -218 545 -445 19 -83 19 -258 0 -333 -53 -201 -214 -350 -460 -421
-130 -37 -307 -52 -453 -37 -154 16 -228 35 -337 87 -167 81 -262 182 -307
329 -30 94 -32 280 -4 371 71 236 276 395 579 450 103 19 337 18 437 -1z"/>
</g>
</svg>
